<svg id="Layer_1" data-name="Layer 1" xmlns="http://www.w3.org/2000/svg" viewBox="0 0 1431.87 40.5"><defs><style>.cls-1{fill:none;stroke:#b4fff3;stroke-miterlimit:10;stroke-width:3px;}</style></defs><title>TopBoard</title><path class="cls-1" d="M326.43,57C451,56,576,54,701,54" transform="translate(-45.63 -50.88)"/><path class="cls-1" d="M293.24,57.19q9.26-.08,18.52-.06" transform="translate(-45.63 -50.88)"/><path class="cls-1" d="M250.57,58c9,0,18-.2,26.94-.66" transform="translate(-45.63 -50.88)"/><path class="cls-1" d="M213.27,57.79c7.43,0,14.85.14,22.28.2" transform="translate(-45.63 -50.88)"/><path class="cls-1" d="M180.55,58.11c5.8-.2,11.6-.3,17.4-.34" transform="translate(-45.63 -50.88)"/><path class="cls-1" d="M150.6,58.26q6.56-.06,13.11,0" transform="translate(-45.63 -50.88)"/><path class="cls-1" d="M115.93,58.91l17.37-.38" transform="translate(-45.63 -50.88)"/><path class="cls-1" d="M90.92,59.27q5.21,0,10.42-.1" transform="translate(-45.63 -50.88)"/><path class="cls-1" d="M68,59q4.17.13,8.33.2" transform="translate(-45.63 -50.88)"/><path class="cls-1" d="M709.33,62.33,701,54" transform="translate(-45.63 -50.88)"/><path class="cls-1" d="M732,85l-9.69-9.69" transform="translate(-45.63 -50.88)"/><path class="cls-1" d="M1050.21,85H1162" transform="translate(-45.63 -50.88)"/><path class="cls-1" d="M1007.08,85h28.56" transform="translate(-45.63 -50.88)"/><path class="cls-1" d="M969.25,85H992.6" transform="translate(-45.63 -50.88)"/><path class="cls-1" d="M933.66,85H954.6" transform="translate(-45.63 -50.88)"/><path class="cls-1" d="M902.31,85H919" transform="translate(-45.63 -50.88)"/><path class="cls-1" d="M868,85h18.2" transform="translate(-45.63 -50.88)"/><path class="cls-1" d="M732,85H853.46" transform="translate(-45.63 -50.88)"/><path class="cls-1" d="M1050,70h259" transform="translate(-45.63 -50.88)"/><path class="cls-1" d="M762,70h274" transform="translate(-45.63 -50.88)"/><line class="cls-1" x1="605.37" y1="19.12" x2="534.37" y2="19.12"/><path class="cls-1" d="M1409.79,70q-.23,7.5-.59,15H1476V70Z" transform="translate(-45.63 -50.88)"/><path class="cls-1" d="M1399.79,70H1329V85h70.2Q1399.55,77.5,1399.79,70Z" transform="translate(-45.63 -50.88)"/><line class="cls-1" x1="1300.87" y1="18.62" x2="1300.87" y2="33.62"/><line class="cls-1" x1="1323.87" y1="18.62" x2="1323.87" y2="33.62"/><line class="cls-1" x1="1394.87" y1="18.62" x2="1394.87" y2="33.62"/><line class="cls-1" x1="1417.87" y1="18.62" x2="1417.87" y2="33.62"/><polygon class="cls-1" points="611.19 14.23 605.55 14.23 602.73 19.12 605.55 24 611.19 24 614.01 19.12 611.19 14.23"/><polygon class="cls-1" points="1121.19 29.23 1115.55 29.23 1112.73 34.12 1115.55 39 1121.19 39 1124.01 34.12 1121.19 29.23"/><polygon class="cls-1" points="13.19 1.5 5.55 1.5 1.73 8.12 5.55 14.73 13.19 14.73 17.01 8.12 13.19 1.5"/></svg>